<?xml version="1.0" standalone="no"?>
<!DOCTYPE svg PUBLIC "-//W3C//DTD SVG 20010904//EN"
 "http://www.w3.org/TR/2001/REC-SVG-20010904/DTD/svg10.dtd">
<svg version="1.0" xmlns="http://www.w3.org/2000/svg"
 width="498.000000pt" height="501.000000pt" viewBox="0 0 498.000000 501.000000"
 preserveAspectRatio="xMidYMid meet">

<g transform="translate(0.000000,501.000000) scale(0.100000,-0.100000)"
 stroke="none">
<path d="M2280 4824 c-367 -33 -769 -174 -1077 -377 -900 -594 -1289 -1686
-966 -2712 117 -371 325 -701 623 -988 370 -356 815 -570 1338 -641 165 -23
446 -21 628 4 654 92 1228 441 1611 980 190 268 326 584 392 915 57 283 53
667 -9 955 -14 62 -67 251 -80 284 -5 11 -26 63 -46 114 -232 589 -743 1088
-1344 1315 -286 108 -494 147 -805 152 -121 1 -240 1 -265 -1z m575 -144 c384
-66 689 -198 1015 -438 89 -66 314 -288 392 -387 244 -309 400 -668 464 -1066
23 -144 24 -513 0 -657 -40 -249 -101 -443 -206 -657 -289 -586 -801 -1011
-1430 -1185 -213 -59 -331 -74 -590 -74 -199 0 -254 3 -360 22 -250 45 -421
100 -639 208 -164 81 -302 170 -449 292 -434 359 -729 908 -791 1474 -14 125
-14 371 0 496 45 409 222 835 482 1157 385 476 938 775 1552 836 132 13 425 2
560 -21z"/>
<path d="M1599 3353 c-12 -13 -14 -166 -17 -886 -3 -965 -6 -917 61 -917 29 0
108 76 900 868 915 915 895 893 851 936 -43 44 -25 60 -876 -791 l-808 -808 0
703 0 703 262 -260 c192 -192 267 -261 285 -261 29 0 63 33 63 62 0 16 -93
116 -322 345 -287 287 -326 323 -354 323 -17 0 -38 -7 -45 -17z"/>
<path d="M3212 2688 c-64 -62 -122 -117 -128 -123 -6 -5 -163 -159 -350 -341
-186 -182 -399 -388 -471 -459 -137 -131 -148 -149 -123 -196 8 -13 21 -19 46
-19 32 0 52 17 247 207 296 290 516 505 697 681 l155 151 5 -503 c4 -406 8
-506 19 -519 19 -24 78 -22 91 2 6 13 10 222 10 610 l0 590 -22 15 c-12 9 -31
16 -41 16 -11 0 -71 -50 -135 -112z"/>
</g>
</svg>
